<?xml version="1.0" encoding="UTF-8" standalone="no"?>
<!-- Uploaded to: SVG Repo, www.svgrepo.com, Generator: SVG Repo Mixer Tools -->

<svg
   width="800px"
   height="800px"
   viewBox="0 0 32 32"
   fill="none"
   version="1.1"
   id="svg14"
   sodipodi:docname="instagram.svg"
   inkscape:version="1.3.2 (091e20e, 2023-11-25, custom)"
   xmlns:inkscape="http://www.inkscape.org/namespaces/inkscape"
   xmlns:sodipodi="http://sodipodi.sourceforge.net/DTD/sodipodi-0.dtd"
   xmlns="http://www.w3.org/2000/svg"
   xmlns:svg="http://www.w3.org/2000/svg">
  <sodipodi:namedview
     id="namedview14"
     pagecolor="#ffffff"
     bordercolor="#000000"
     borderopacity="0.25"
     inkscape:showpageshadow="2"
     inkscape:pageopacity="0.0"
     inkscape:pagecheckerboard="0"
     inkscape:deskcolor="#d1d1d1"
     inkscape:zoom="1.42125"
     inkscape:cx="399.6482"
     inkscape:cy="401.40721"
     inkscape:window-width="2560"
     inkscape:window-height="1351"
     inkscape:window-x="-9"
     inkscape:window-y="-9"
     inkscape:window-maximized="1"
     inkscape:current-layer="svg14" />
  <rect
     x="0"
     y="0"
     width="31.999998"
     height="31.999998"
     rx="2.4384956"
     fill="url(#paint0_radial_87_7153)"
     id="rect1"
     style="fill:url(#paint0_radial_87_7153);stroke-width:1.14286" />
  <rect
     x="0"
     y="0"
     width="31.999998"
     height="31.999998"
     rx="2.3822081"
     fill="url(#paint1_radial_87_7153)"
     id="rect2"
     style="fill:url(#paint1_radial_87_7153);stroke-width:1.14286" />
  <rect
     x="0"
     y="0"
     width="31.999998"
     height="31.999998"
     rx="2.4103515"
     fill="url(#paint2_radial_87_7153)"
     id="rect3"
     style="fill:url(#paint2_radial_87_7153);stroke-width:1.14286" />
  <path
     d="m 23.999999,9.7142854 c 0,0.9467426 -0.767543,1.7142856 -1.714286,1.7142856 -0.946742,0 -1.714285,-0.767543 -1.714285,-1.7142856 0,-0.9467772 0.767543,-1.7142857 1.714285,-1.7142857 0.946743,0 1.714286,0.7675085 1.714286,1.7142857 z"
     fill="#ffffff"
     id="path3"
     style="stroke-width:1.14286" />
  <path
     fill-rule="evenodd"
     clip-rule="evenodd"
     d="m 15.999999,21.714285 c 3.155886,0 5.714286,-2.5584 5.714286,-5.714286 0,-3.155885 -2.5584,-5.714285 -5.714286,-5.714285 -3.155885,0 -5.714285,2.5584 -5.714285,5.714285 0,3.155886 2.5584,5.714286 5.714285,5.714286 z m 0,-2.285714 c 1.8936,0 3.428572,-1.534972 3.428572,-3.428572 0,-1.8936 -1.534972,-3.428571 -3.428572,-3.428571 -1.8936,0 -3.428571,1.534971 -3.428571,3.428571 0,1.8936 1.534971,3.428572 3.428571,3.428572 z"
     fill="#ffffff"
     id="path4"
     style="stroke-width:1.14286" />
  <path
     fill-rule="evenodd"
     clip-rule="evenodd"
     d="m 4.5714284,15.542857 c 0,-3.840343 0,-5.7605717 0.7473828,-7.2273602 C 5.9762283,7.025234 7.025234,5.9762283 8.3154968,5.3188112 9.7822853,4.5714284 11.702514,4.5714284 15.542857,4.5714284 h 0.914285 c 3.840343,0 5.760571,0 7.227314,0.7473828 1.290286,0.6574171 2.339314,1.7064228 2.996686,2.9966856 0.747428,1.4667885 0.747428,3.3870172 0.747428,7.2273602 v 0.914285 c 0,3.840343 0,5.760571 -0.747428,7.227314 -0.657372,1.290286 -1.7064,2.339314 -2.996686,2.996686 -1.466743,0.747428 -3.386971,0.747428 -7.227314,0.747428 h -0.914285 c -3.840343,0 -5.7605717,0 -7.2273602,-0.747428 C 7.025234,26.02377 5.9762283,24.974742 5.3188112,23.684456 4.5714284,22.217713 4.5714284,20.297485 4.5714284,16.457142 Z M 15.542857,6.8571426 h 0.914285 c 1.957943,0 3.2888,0.00178 4.3176,0.085829 1.002171,0.081874 1.514629,0.2302742 1.872114,0.4124228 0.860115,0.4382857 1.559429,1.1376228 1.997715,1.9977485 0.182171,0.3574857 0.330628,0.8699421 0.412457,1.8721141 0.084,1.0288 0.08583,2.359657 0.08583,4.3176 v 0.914285 c 0,1.957943 -0.0018,3.2888 -0.08583,4.3176 -0.08183,1.002171 -0.230286,1.514629 -0.412457,1.872114 -0.438286,0.860115 -1.1376,1.559429 -1.997715,1.997715 -0.357485,0.182171 -0.869943,0.330628 -1.872114,0.412457 -1.0288,0.084 -2.359657,0.08583 -4.3176,0.08583 h -0.914285 c -1.957943,0 -3.2888,-0.0018 -4.3176,-0.08583 C 10.223085,24.975199 9.7106282,24.826742 9.3531425,24.644571 8.4930168,24.206285 7.7936797,23.506971 7.355394,22.646856 7.1732454,22.289371 7.0248455,21.776913 6.9429712,20.774742 c -0.084046,-1.0288 -0.085829,-2.359657 -0.085829,-4.3176 v -0.914285 c 0,-1.957943 0.00178,-3.2888 0.085829,-4.3176 C 7.0248455,10.223085 7.1732454,9.7106282 7.355394,9.3531425 7.7936797,8.4930168 8.4930168,7.7936797 9.3531425,7.355394 9.7106282,7.1732454 10.223085,7.0248455 11.225257,6.9429712 c 1.0288,-0.084046 2.359657,-0.085829 4.3176,-0.085829 z"
     fill="#ffffff"
     id="path5"
     style="stroke-width:1.14286" />
  <defs
     id="defs14">
    <radialGradient
       id="paint0_radial_87_7153"
       cx="0"
       cy="0"
       r="1"
       gradientUnits="userSpaceOnUse"
       gradientTransform="matrix(16.571446,-23.999985,23.999985,16.571446,11.428571,23.999999)">
      <stop
         stop-color="#B13589"
         id="stop5"
         offset="0"
         style="stop-color:#000000;stop-opacity:1;" />
      <stop
         offset="0.79308999"
         stop-color="#C62F94"
         id="stop6"
         style="stop-color:#000000;stop-opacity:1;" />
      <stop
         offset="1"
         stop-color="#8A3AC8"
         id="stop7"
         style="stop-color:#000000;stop-opacity:1;" />
    </radialGradient>
    <radialGradient
       id="paint1_radial_87_7153"
       cx="0"
       cy="0"
       r="1"
       gradientUnits="userSpaceOnUse"
       gradientTransform="matrix(10.857121,-23.428521,23.428521,10.857121,10.285714,33.142856)">
      <stop
         stop-color="#E0E8B7"
         id="stop8"
         offset="0"
         style="stop-color:#000000;stop-opacity:1;" />
      <stop
         offset="0.444662"
         stop-color="#FB8A2E"
         id="stop9"
         style="stop-color:#000000;stop-opacity:1;" />
      <stop
         offset="0.71473998"
         stop-color="#E2425C"
         id="stop10"
         style="stop-color:#000000;stop-opacity:1;" />
      <stop
         offset="1"
         stop-color="#E2425C"
         stop-opacity="0"
         id="stop11"
         style="stop-color:#000000;stop-opacity:0;" />
    </radialGradient>
    <radialGradient
       id="paint2_radial_87_7153"
       cx="0"
       cy="0"
       r="1"
       gradientUnits="userSpaceOnUse"
       gradientTransform="matrix(44.000029,-6.2857166,1.3444495,9.4111497,-1.7142834,1.1428571)">
      <stop
         offset="0.156701"
         stop-color="#406ADC"
         id="stop12"
         style="stop-color:#000000;stop-opacity:1;" />
      <stop
         offset="0.46779901"
         stop-color="#6A45BE"
         id="stop13"
         style="stop-color:#000000;stop-opacity:1;" />
      <stop
         offset="1"
         stop-color="#6A45BE"
         stop-opacity="0"
         id="stop14"
         style="stop-color:#000000;stop-opacity:0;" />
    </radialGradient>
  </defs>
</svg>
