<?xml version="1.0" encoding="UTF-8" standalone="no"?>
<!-- Uploaded to: SVG Repo, www.svgrepo.com, Generator: SVG Repo Mixer Tools -->

<svg
   width="800px"
   height="800px"
   viewBox="0 0 16 16"
   fill="none"
   version="1.1"
   id="svg1"
   sodipodi:docname="linkedin.svg"
   inkscape:version="1.3.2 (091e20e, 2023-11-25, custom)"
   xmlns:inkscape="http://www.inkscape.org/namespaces/inkscape"
   xmlns:sodipodi="http://sodipodi.sourceforge.net/DTD/sodipodi-0.dtd"
   xmlns="http://www.w3.org/2000/svg"
   xmlns:svg="http://www.w3.org/2000/svg">
  <defs
     id="defs1" />
  <sodipodi:namedview
     id="namedview1"
     pagecolor="#ffffff"
     bordercolor="#000000"
     borderopacity="0.25"
     inkscape:showpageshadow="2"
     inkscape:pageopacity="0.0"
     inkscape:pagecheckerboard="0"
     inkscape:deskcolor="#d1d1d1"
     inkscape:zoom="1.42125"
     inkscape:cx="399.6482"
     inkscape:cy="400"
     inkscape:window-width="2560"
     inkscape:window-height="1351"
     inkscape:window-x="-9"
     inkscape:window-y="-9"
     inkscape:window-maximized="1"
     inkscape:current-layer="svg1" />
  <path
     fill="#0a66c2"
     d="M 13.633333,13.633353 H 11.262667 V 9.9200197 c 0,-0.8853333 -0.016,-2.0253333 -1.233334,-2.0253333 -1.2346663,0 -1.4239997,0.9653333 -1.4239997,1.96 V 13.633353 H 6.2346667 V 5.9973531 h 2.276 v 1.044 h 0.032 c 0.464,-0.792 1.328,-1.2666667 2.2453333,-1.2333334 2.402667,0 2.846667,1.58 2.846667,3.6373334 l -0.0013,4.1866669 z M 3.56,4.9533531 A 1.3826667,1.3826667 0 0 1 2.184,3.5786864 c 0,-0.7546667 0.6213333,-1.376 1.376,-1.376 0.7546667,0 1.3746667,0.6213333 1.376,1.376 0,0.7546667 -0.6213333,1.376 -1.376,1.376 z M 4.7453333,13.633353 H 2.372 V 5.9973531 H 4.7453333 Z M 14.813333,1.9790847e-5 H 1.18 A 1.1733333,1.1733333 0 0 0 0,1.1546865 V 14.845353 A 1.1733333,1.1733333 0 0 0 1.18,16.00002 H 14.814667 A 1.176,1.176 0 0 0 16,14.845353 V 1.1533531 A 1.1733333,1.1733333 0 0 0 14.814667,0.00135312 Z"
     id="path1"
     style="stroke-width:1.33333;fill:#000000;fill-opacity:1" />
</svg>
