<?xml version="1.0" encoding="UTF-8" standalone="no"?>
<svg
   id="svg1"
   viewBox="0 0 800 800"
   version="1.1"
   sodipodi:docname="thomas.svg"
   inkscape:version="1.3.2 (091e20e, 2023-11-25, custom)"
   xmlns:inkscape="http://www.inkscape.org/namespaces/inkscape"
   xmlns:sodipodi="http://sodipodi.sourceforge.net/DTD/sodipodi-0.dtd"
   xmlns:xlink="http://www.w3.org/1999/xlink"
   xmlns="http://www.w3.org/2000/svg"
   xmlns:svg="http://www.w3.org/2000/svg">
  <sodipodi:namedview
     id="namedview1"
     pagecolor="#ffffff"
     bordercolor="#000000"
     borderopacity="0.25"
     inkscape:showpageshadow="2"
     inkscape:pageopacity="0.0"
     inkscape:pagecheckerboard="0"
     inkscape:deskcolor="#d1d1d1"
     inkscape:zoom="0.710625"
     inkscape:cx="43.623571"
     inkscape:cy="214.59982"
     inkscape:window-width="2560"
     inkscape:window-height="1351"
     inkscape:window-x="-9"
     inkscape:window-y="-9"
     inkscape:window-maximized="1"
     inkscape:current-layer="svg1" />
  <defs
     id="defs1">
    <linearGradient
       id="swatch2"
       inkscape:swatch="solid">
      <stop
         style="stop-color:#ffffff;stop-opacity:1;"
         offset="0"
         id="stop2" />
    </linearGradient>
    <style
       id="style1">
      .cls-1 {
        fill: #e10717;
        stroke-width: 0px;
      }
    </style>
    <linearGradient
       inkscape:collect="always"
       xlink:href="#swatch2"
       id="linearGradient2"
       x1="105.18"
       y1="400"
       x2="697.3"
       y2="400"
       gradientUnits="userSpaceOnUse" />
  </defs>
  <path
     d="M 427.30584,800.00002 H 44.153834 C 19.761167,800.00002 0,780.22652 0,755.84335 V 44.153501 C 0,19.764167 19.764334,0 44.153834,0 H 755.84918 c 24.38333,0 44.15083,19.764167 44.15083,44.153501 V 755.84335 c 0,24.38633 -19.7705,44.15667 -44.15083,44.15667 H 551.98834 Z"
     id="Facebook"
     style="fill:#000000;fill-opacity:1;fill-rule:evenodd;stroke:none;stroke-width:0.167001;stroke-dasharray:none"
     sodipodi:nodetypes="csssssssscc" />
  <polygon
     class="cls-1"
     points="134.44,298.35 252.89,257.23 252.89,800 342.5,800 342.5,226.11 697.3,102.93 668.04,18.23 530.19,66.09 530.19,0 456.33,0 456.33,91.74 105.18,213.66 "
     id="polygon1"
     style="fill:#ffffff;fill-opacity:1;stroke:url(#linearGradient2);stroke-width:23.9208;stroke-linecap:round;stroke-linejoin:round;stroke-dasharray:none;stroke-opacity:1;paint-order:fill markers stroke"
     transform="matrix(0.83609266,0,0,0.83609266,64.526186,121.12589)" />
</svg>
