<?xml version="1.0" encoding="UTF-8" standalone="no"?>
<!-- Uploaded to: SVG Repo, www.svgrepo.com, Generator: SVG Repo Mixer Tools -->

<svg
   fill="#000000"
   width="800px"
   height="800px"
   viewBox="0 0 24 24"
   version="1.1"
   id="svg1"
   sodipodi:docname="tiktok.svg"
   inkscape:version="1.3.2 (091e20e, 2023-11-25, custom)"
   xmlns:inkscape="http://www.inkscape.org/namespaces/inkscape"
   xmlns:sodipodi="http://sodipodi.sourceforge.net/DTD/sodipodi-0.dtd"
   xmlns="http://www.w3.org/2000/svg"
   xmlns:svg="http://www.w3.org/2000/svg">
  <defs
     id="defs1" />
  <sodipodi:namedview
     id="namedview1"
     pagecolor="#ffffff"
     bordercolor="#000000"
     borderopacity="0.25"
     inkscape:showpageshadow="2"
     inkscape:pageopacity="0.0"
     inkscape:pagecheckerboard="0"
     inkscape:deskcolor="#d1d1d1"
     inkscape:zoom="1.42125"
     inkscape:cx="399.6482"
     inkscape:cy="400"
     inkscape:window-width="2560"
     inkscape:window-height="1351"
     inkscape:window-x="-9"
     inkscape:window-y="-9"
     inkscape:window-maximized="1"
     inkscape:current-layer="svg1" />
  <path
     d="M 22.8,0 H 1.2 A 1.2,1.2 0 0 0 0,1.2 V 22.8 A 1.2,1.2 0 0 0 1.2,24 H 22.8 A 1.2,1.2 0 0 0 24,22.8 V 1.2 A 1.2,1.2 0 0 0 22.8,0 Z m -3.9372,10.47 v 0 C 18.732,10.4832 18.6,10.4892 18.4692,10.4904 A 4.2852,4.2852 0 0 1 14.88,8.5548 v 6.5916 a 4.8732,4.8732 0 1 1 -4.872,-4.872 c 0.102,0 0.2004,0.0096 0.3012,0.0156 v 2.4 A 2.4804,2.4804 0 1 0 10.008,17.6328 2.5476,2.5476 0 0 0 12.6,15.1788 L 12.624,3.9816 h 2.2968 A 4.2768,4.2768 0 0 0 18.8628,7.8 Z"
     id="path1"
     style="stroke-width:1.2" />
</svg>
